<?xml version="1.0" standalone="no"?>
<!DOCTYPE svg PUBLIC "-//W3C//DTD SVG 20010904//EN"
 "http://www.w3.org/TR/2001/REC-SVG-20010904/DTD/svg10.dtd">
<svg version="1.0" xmlns="http://www.w3.org/2000/svg"
 width="119.000000pt" height="193.000000pt" viewBox="0 0 119.000000 193.000000"
 preserveAspectRatio="xMidYMid meet">

<g transform="translate(0.000000,193.000000) scale(0.100000,-0.100000)"
fill="#000000" stroke="none">
<path d="M0 1110 l0 -820 85 0 c84 0 85 0 85 -25 0 -25 -1 -25 -85 -25 l-85 0
0 -45 0 -45 45 0 c41 0 45 -2 45 -25 0 -23 -4 -25 -45 -25 l-45 0 0 -50 0 -50
595 0 595 0 0 50 0 50 -41 0 c-36 0 -40 2 -37 23 2 18 10 23 41 25 37 3 37 4
37 47 l0 44 -72 3 c-67 3 -73 5 -76 25 -3 22 0 23 72 23 l76 0 0 820 0 820
-595 0 -595 0 0 -820z m666 732 c44 -35 56 -90 29 -130 -15 -21 -15 -22 26
-28 23 -4 53 -17 68 -30 25 -21 25 -23 8 -42 -10 -11 -29 -23 -43 -26 -61 -16
5 -78 94 -89 100 -12 124 -48 177 -264 111 -456 122 -550 77 -677 -22 -64 -92
-135 -156 -158 -44 -16 -49 -16 -74 -1 l-27 16 28 -27 c36 -35 63 -91 70 -143
3 -25 16 -56 31 -74 32 -38 33 -62 2 -87 -45 -35 -137 -47 -361 -47 -167 0
-225 4 -284 18 -41 10 -82 22 -93 28 -38 20 -8 109 37 109 13 0 50 -6 82 -14
32 -8 90 -17 128 -20 l70 -5 -70 14 c-38 7 -103 21 -143 31 -71 17 -73 19 -67
43 4 14 8 27 10 29 1 2 37 -4 79 -12 41 -9 85 -16 98 -15 13 0 -17 9 -66 19
-49 10 -94 24 -99 29 -8 8 -6 22 6 47 10 19 15 39 13 43 -3 4 -24 14 -47 21
-57 19 -132 96 -153 156 -28 83 -30 158 -7 294 12 69 28 148 35 175 8 28 28
113 46 190 37 157 68 235 106 260 14 9 50 19 80 22 30 3 54 9 54 13 0 4 14 13
30 20 17 7 30 19 30 26 0 8 8 14 18 15 9 1 -3 5 -27 10 -47 9 -71 24 -71 44 0
21 50 55 80 55 37 0 40 6 23 41 -43 86 78 182 153 121z"/>
<path d="M590 1823 c-55 -20 -67 -78 -24 -112 15 -12 32 -21 39 -21 7 0 24 9
39 21 26 20 35 61 18 85 -7 10 -47 35 -54 33 -2 0 -10 -3 -18 -6z m50 -43 c20
-38 -12 -70 -54 -54 -16 6 -22 54 -9 67 14 14 53 6 63 -13z"/>
<path d="M585 1770 c-4 -7 -3 -16 3 -22 14 -14 45 -2 40 15 -6 16 -34 21 -43
7z"/>
<path d="M752 1465 c0 -16 2 -22 5 -12 2 9 2 23 0 30 -3 6 -5 -1 -5 -18z"/>
<path d="M266 1385 c-9 -26 -7 -32 5 -12 6 10 9 21 6 23 -2 3 -7 -2 -11 -11z"/>
<path d="M370 1381 c-32 -9 -46 -39 -80 -175 -66 -269 -74 -315 -74 -462 -1
-138 0 -141 27 -183 28 -42 76 -71 118 -71 14 0 19 -5 16 -14 -3 -8 -1 -17 6
-19 9 -3 8 -10 -2 -28 -11 -18 -4 -15 26 12 22 20 46 39 54 41 11 4 9 11 -9
31 -27 28 -22 34 40 46 l43 9 -53 1 c-52 1 -52 1 -50 30 1 17 -5 38 -16 50
-10 11 -16 25 -14 32 2 6 20 -7 41 -30 l37 -41 139 0 c127 0 140 2 145 18 4
11 18 29 31 42 35 33 34 2 0 -33 -17 -16 -21 -27 -14 -29 7 -2 10 -11 6 -21
-5 -13 -20 -17 -64 -18 -61 -1 -61 -3 -3 -13 57 -10 68 -21 46 -45 l-19 -21
67 0 c133 0 183 50 193 191 6 88 -8 232 -32 334 -84 350 -83 349 -125 364 -28
9 -33 8 -37 -9 -5 -19 -14 -20 -204 -20 -192 0 -199 1 -199 20 0 21 -1 22 -40
11z m450 -66 c7 -8 10 -22 6 -30 -5 -13 -35 -15 -218 -13 -199 3 -213 4 -216
22 -2 10 2 22 10 27 7 5 101 9 209 9 162 0 199 -3 209 -15z m-42 -82 c2 -13 9
-23 16 -23 22 0 36 -24 42 -74 l7 -46 -233 0 -233 0 7 46 c7 55 11 63 42 74
15 6 24 18 24 30 0 20 4 20 163 18 159 -3 162 -3 165 -25z m-375 -366 c-5
-113 -8 -135 -19 -126 -22 18 -12 222 13 262 11 17 11 -2 6 -136z m245 78 c76
-86 96 -163 67 -261 -16 -55 -18 -57 -31 -39 -12 16 -13 37 -8 97 6 73 5 77
-17 88 -21 12 -26 10 -52 -21 -42 -49 -59 -94 -51 -136 6 -33 6 -35 -14 -24
-25 13 -52 50 -52 69 0 8 18 55 41 104 29 65 40 104 41 139 0 44 2 48 18 39
10 -5 36 -30 58 -55z m191 2 c12 -69 15 -166 5 -191 -13 -34 -21 -13 -20 52 1
37 -3 97 -8 135 -11 87 8 91 23 4z"/>
<path d="M946 1377 c3 -10 9 -15 12 -12 3 3 0 11 -7 18 -10 9 -11 8 -5 -6z"/>
<path d="M221 1234 c0 -11 3 -14 6 -6 3 7 2 16 -1 19 -3 4 -6 -2 -5 -13z"/>
<path d="M192 1100 c0 -14 2 -19 5 -12 2 6 2 18 0 25 -3 6 -5 1 -5 -13z"/>
<path d="M1022 1090 c0 -14 2 -19 5 -12 2 6 2 18 0 25 -3 6 -5 1 -5 -13z"/>
<path d="M182 1050 c0 -14 2 -19 5 -12 2 6 2 18 0 25 -3 6 -5 1 -5 -13z"/>
<path d="M1031 1044 c0 -11 3 -14 6 -6 3 7 2 16 -1 19 -3 4 -6 -2 -5 -13z"/>
<path d="M161 924 c0 -11 3 -14 6 -6 3 7 2 16 -1 19 -3 4 -6 -2 -5 -13z"/>
<path d="M1051 924 c0 -11 3 -14 6 -6 3 7 2 16 -1 19 -3 4 -6 -2 -5 -13z"/>
<path d="M145 817 c-4 -42 -5 -81 -3 -89 3 -7 8 25 12 71 4 46 5 86 2 88 -2 2
-7 -29 -11 -70z"/>
<path d="M1063 855 c0 -22 2 -30 4 -17 2 12 2 30 0 40 -3 9 -5 -1 -4 -23z"/>
<path d="M1073 755 c0 -33 2 -45 4 -27 2 18 2 45 0 60 -2 15 -4 0 -4 -33z"/>
<path d="M132 680 c0 -19 2 -27 5 -17 2 9 2 25 0 35 -3 9 -5 1 -5 -18z"/>
<path d="M1062 598 c-6 -28 -19 -59 -28 -70 -10 -10 -15 -21 -12 -24 10 -10
50 66 55 106 8 56 0 50 -15 -12z"/>
<path d="M141 622 c-1 -27 20 -79 44 -107 15 -18 15 -17 0 10 -10 16 -24 49
-31 75 -7 27 -13 36 -13 22z"/>
<path d="M562 63 c32 -2 84 -2 116 0 31 2 5 3 -58 3 -63 0 -89 -1 -58 -3z"/>
</g>
</svg>
